# xmcd
#
# Track frame offsets:
#	150
#	9954
#	25034
#	38642
#	50773
#	61661
#	71650
#	81891
#	96189
#	107776
#	119139
#	129883
#
# Disc length: 1880 seconds
#
# Revision: 1
# Processed by: cddbd v1.4PL0 Copyright (c) Steve Scherf et al.
# Submitted via: CDmax 1.9
#
DISCID=9707560c
DTITLE=J. D. Crowe and The Kentucky Mountain Boys - Bluegrass Holiday
DYEAR=1900
DGENRE=Country
TTITLE0=Little Girl in Tennessee
TTITLE1=Down Where the River Bends
TTITLE2=Philadelphia Layer
TTITLE3=Will You Be Satisfied That Way
TTITLE4=Train 45
TTITLE5=You Go to Your Church
TTITLE6=Helen
TTITLE7=Before I Met You
TTITLE8=Orange Blossom Special
TTITLE9=Dark Hollow
TTITLE10=She's Just a Little Cute Thing
TTITLE11=Little Bessie
EXTD=
EXTT0=
EXTT1=
EXTT2=
EXTT3=
EXTT4=
EXTT5=
EXTT6=
EXTT7=
EXTT8=
EXTT9=
EXTT10=
EXTT11=
PLAYORDER=
